<svg width="10" height="10" viewBox="0 0 10 10" fill="none" xmlns="http://www.w3.org/2000/svg">
<path d="M5.19488 0.570861L5.19524 0.571205L8.19062 3.42455C8.23191 3.46637 8.25042 3.51682 8.24999 3.56422C8.24955 3.61249 8.22939 3.66382 8.18551 3.70563C8.14083 3.74818 8.07554 3.77626 8.00253 3.77686C7.93072 3.77745 7.86568 3.75135 7.82007 3.7105L6.10468 2.07645L5.25981 1.27165V2.43848V9.28571C5.25981 9.33449 5.2397 9.38649 5.19532 9.42876C5.15012 9.47181 5.08385 9.5 5.00996 9.5C4.93607 9.5 4.8698 9.47181 4.82461 9.42876C4.78023 9.38649 4.76011 9.33449 4.76011 9.28571V2.43848V1.27235L3.91541 2.0763L2.1945 3.71418L2.19445 3.71412L2.1881 3.72037C2.16619 3.74199 2.13865 3.7605 2.10645 3.77368C2.07422 3.78687 2.03872 3.79411 2.00223 3.79442C1.96573 3.79472 1.93005 3.78806 1.89747 3.77536C1.86493 3.76268 1.83692 3.74455 1.81449 3.72318L1.81449 3.72318C1.79211 3.70186 1.77581 3.67787 1.76526 3.65329C1.75473 3.62878 1.74978 3.60343 1.75001 3.57849C1.75024 3.55354 1.75565 3.5282 1.76668 3.50375C1.77774 3.47922 1.79456 3.45537 1.81746 3.43431L1.81751 3.43436L1.82379 3.42838L4.82319 0.571205L4.82355 0.570861C4.84531 0.550089 4.87255 0.532424 4.90426 0.520068L4.90426 0.520071L4.90596 0.519405C4.97167 0.493532 5.04676 0.493532 5.11247 0.519405L5.11247 0.519408L5.11416 0.520068C5.14588 0.532425 5.17312 0.55009 5.19488 0.570861Z" fill="#00A985" stroke="#00A985"/>
</svg>
