<svg width="12" height="12" viewBox="0 0 12 12" fill="none" xmlns="http://www.w3.org/2000/svg">
<path d="M11.9348 6.34337C11.9996 6.17929 12.0166 5.99875 11.9835 5.82457C11.9504 5.65039 11.8687 5.49041 11.7487 5.36487L8.31995 1.77406C8.24088 1.68832 8.14629 1.61993 8.04171 1.57288C7.93713 1.52583 7.82465 1.50107 7.71083 1.50003C7.59701 1.499 7.48414 1.52171 7.37879 1.56685C7.27344 1.61199 7.17774 1.67864 7.09725 1.76293C7.01677 1.84722 6.95312 1.94745 6.91002 2.05777C6.86692 2.1681 6.84523 2.28631 6.84622 2.4055C6.84721 2.5247 6.87085 2.6425 6.91578 2.75202C6.9607 2.86154 7.02601 2.9606 7.10788 3.04341L9.07429 5.10274H0.857197C0.629854 5.10274 0.411823 5.19732 0.251067 5.36568C0.0903117 5.53403 0 5.76236 0 6.00045C0 6.23853 0.0903117 6.46687 0.251067 6.63522C0.411823 6.80357 0.629854 6.89815 0.857197 6.89815H9.07429L7.10874 8.95659C7.02686 9.0394 6.96156 9.13846 6.91664 9.24798C6.87171 9.3575 6.84806 9.4753 6.84707 9.5945C6.84609 9.71369 6.86777 9.8319 6.91088 9.94223C6.95398 10.0526 7.01763 10.1528 7.09811 10.2371C7.1786 10.3214 7.2743 10.388 7.37965 10.4332C7.485 10.4783 7.59787 10.501 7.71169 10.5C7.82551 10.4989 7.93799 10.4742 8.04257 10.4271C8.14715 10.3801 8.24174 10.3117 8.32081 10.2259L11.7496 6.63513C11.829 6.55155 11.8919 6.45241 11.9348 6.34337Z" fill="#9AA4B2"/>
</svg>
