<svg width="8" height="11" viewBox="0 0 8 11" fill="none" xmlns="http://www.w3.org/2000/svg">
<path d="M7.18495 6.78505L7.18535 6.78544C7.22969 6.82761 7.24993 6.87962 7.25 6.92856C7.25007 6.97743 7.23003 7.02941 7.18596 7.07163C7.18591 7.07167 7.18587 7.07172 7.18583 7.07176L4.19031 9.92815L4.18995 9.9285C4.16825 9.94923 4.14111 9.96685 4.10953 9.97917L4.10952 9.97915L4.10519 9.98088C4.07416 9.99331 4.04005 10 4.00506 10C3.97006 10 3.93595 9.99331 3.90492 9.98088L3.90493 9.98086L3.90058 9.97917C3.869 9.96685 3.84186 9.94923 3.82016 9.9285L3.8198 9.92815L0.823718 7.07122L0.82377 7.07116L0.817389 7.06529C0.794559 7.04426 0.777748 7.02042 0.766688 6.99587C0.755658 6.97138 0.750235 6.946 0.750008 6.92098C0.74978 6.89597 0.754738 6.87057 0.765268 6.84603C0.775827 6.82142 0.792112 6.79743 0.814434 6.77615C0.836807 6.75482 0.864715 6.73673 0.897116 6.72409C0.929553 6.71144 0.96507 6.70481 1.00139 6.70511C1.0377 6.70541 1.07303 6.71263 1.10513 6.72577L1.29465 6.26308L1.10513 6.72577C1.13719 6.73891 1.16464 6.75737 1.1865 6.77895L1.18644 6.77901L1.19273 6.785L2.91024 8.42274L3.75529 9.22855V8.06089V1.21423C3.75529 1.1653 3.77545 1.11326 3.81972 1.07105C3.86479 1.02807 3.93079 1 4.00431 1C4.07782 1 4.14382 1.02807 4.18889 1.07105C4.23316 1.11326 4.25333 1.1653 4.25333 1.21423V8.06089V9.22855L5.09838 8.42274L6.81583 6.78505C6.8609 6.74209 6.92689 6.71403 7.00039 6.71403C7.07389 6.71403 7.13988 6.74209 7.18495 6.78505Z" fill="#EB5050" stroke="#EB5050"/>
</svg>
