<svg width="14" height="14" viewBox="0 0 14 14" fill="none" xmlns="http://www.w3.org/2000/svg">
<path d="M9.50981 2.51041C9.63896 2.3767 9.79344 2.27004 9.96424 2.19667C10.135 2.1233 10.3188 2.08468 10.5046 2.08306C10.6905 2.08145 10.8749 2.11687 11.0469 2.18726C11.219 2.25765 11.3753 2.36161 11.5068 2.49306C11.6382 2.62451 11.7422 2.78082 11.8126 2.95288C11.883 3.12493 11.9184 3.30928 11.9168 3.49517C11.9151 3.68106 11.8765 3.86477 11.8032 4.03558C11.7298 4.20638 11.6231 4.36087 11.4894 4.49001L10.9343 5.04511L8.95471 3.06551L9.50981 2.51041V2.51041ZM7.96491 4.05531L2.09961 9.92061V11.9002H4.07921L9.94521 6.03491L7.96421 4.05531H7.96491Z" fill="#9AA4B2"/>
</svg>
