<svg width="16" height="16" viewBox="0 0 16 16" fill="none" xmlns="http://www.w3.org/2000/svg">
<g clip-path="url(#clip0_4190_2228)">
<path d="M15.2002 16L15.2003 15.5C15.1207 15.5 15.0444 15.4684 14.9882 15.4121L14.9881 15.412L11.7919 12.2159C11.7387 12.1595 11.7093 12.0848 11.71 12.0072C11.7106 11.9286 11.7422 11.8533 11.7978 11.7977L11.4443 11.4441L11.7978 11.7977C11.8534 11.7421 11.9287 11.7105 12.0073 11.7098C12.0849 11.7092 12.1597 11.7386 12.216 11.7918L15.4122 14.9879C15.4122 14.9879 15.4122 14.9879 15.4122 14.988C15.4541 15.0299 15.4827 15.0833 15.4942 15.1415C15.5058 15.1997 15.4999 15.26 15.4772 15.3148C15.4545 15.3696 15.416 15.4165 15.3667 15.4494C15.3174 15.4824 15.2594 15.5 15.2001 15.5L15.2002 16ZM15.2002 16C14.988 16 14.7846 15.9156 14.6346 15.7656L11.4345 12.5656L15.7658 14.6344C15.8776 14.7463 15.9538 14.8888 15.9846 15.044C16.0155 15.1991 15.9996 15.36 15.9391 15.5061C15.8786 15.6523 15.7761 15.7772 15.6445 15.8651C15.513 15.953 15.3584 16 15.2002 16ZM6.40058 1.1H6.40008C5.35183 1.1 4.32712 1.41084 3.45553 1.99321C2.58394 2.57558 1.90461 3.40333 1.50347 4.37178C1.10232 5.34022 0.997356 6.40588 1.20186 7.43398C1.40637 8.46208 1.91115 9.40645 2.65237 10.1477C3.3936 10.8889 4.33798 11.3937 5.36609 11.5982C6.3942 11.8027 7.45986 11.6977 8.42832 11.2966C9.39678 10.8954 10.2245 10.2161 10.8069 9.34452C11.3893 8.47294 11.7001 7.44824 11.7001 6.4V6.3995C11.6987 4.99441 11.1399 3.64728 10.1464 2.65374C9.15282 1.66019 7.80567 1.10141 6.40058 1.1ZM6.39952 12.3C5.23279 12.2999 4.09228 11.9539 3.12217 11.3057C2.15191 10.6574 1.39568 9.73591 0.949118 8.65783C0.502557 7.57975 0.385716 6.39345 0.613371 5.24897C0.841026 4.10448 1.40295 3.0532 2.22809 2.22807C3.05323 1.40294 4.10453 0.841023 5.24903 0.61337C6.39353 0.385717 7.57984 0.502557 8.65794 0.949114C9.73604 1.39567 10.6575 2.15189 11.3058 3.12214C11.954 4.09223 12.3 5.23273 12.3002 6.39944C12.2984 7.96382 11.6762 9.46363 10.57 10.5698C9.46375 11.676 7.96392 12.2982 6.39952 12.3Z" fill="#9AA4B2" stroke="#9AA4B2"/>
</g>
<defs>
<clipPath id="clip0_4190_2228">
<rect width="16" height="16" fill="white"/>
</clipPath>
</defs>
</svg>
