<svg width="14" height="14" viewBox="0 0 14 14" fill="none" xmlns="http://www.w3.org/2000/svg">
<path fill-rule="evenodd" clip-rule="evenodd" d="M6.29961 1.3999C6.16965 1.39997 6.04227 1.43622 5.93174 1.50459C5.82121 1.57296 5.7319 1.67075 5.67381 1.787L5.16701 2.7999H2.79961C2.61396 2.7999 2.43591 2.87365 2.30463 3.00493C2.17336 3.1362 2.09961 3.31425 2.09961 3.4999C2.09961 3.68555 2.17336 3.8636 2.30463 3.99488C2.43591 4.12615 2.61396 4.1999 2.79961 4.1999V11.1999C2.79961 11.5712 2.94711 11.9273 3.20966 12.1899C3.47221 12.4524 3.82831 12.5999 4.19961 12.5999H9.79961C10.1709 12.5999 10.527 12.4524 10.7896 12.1899C11.0521 11.9273 11.1996 11.5712 11.1996 11.1999V4.1999C11.3853 4.1999 11.5633 4.12615 11.6946 3.99488C11.8259 3.8636 11.8996 3.68555 11.8996 3.4999C11.8996 3.31425 11.8259 3.1362 11.6946 3.00493C11.5633 2.87365 11.3853 2.7999 11.1996 2.7999H8.83221L8.32541 1.787C8.26732 1.67075 8.178 1.57296 8.06748 1.50459C7.95695 1.43622 7.82957 1.39997 7.69961 1.3999H6.29961ZM4.89961 5.5999C4.89961 5.41425 4.97336 5.2362 5.10463 5.10493C5.23591 4.97365 5.41396 4.8999 5.59961 4.8999C5.78526 4.8999 5.96331 4.97365 6.09458 5.10493C6.22586 5.2362 6.29961 5.41425 6.29961 5.5999V9.7999C6.29961 9.98555 6.22586 10.1636 6.09458 10.2949C5.96331 10.4262 5.78526 10.4999 5.59961 10.4999C5.41396 10.4999 5.23591 10.4262 5.10463 10.2949C4.97336 10.1636 4.89961 9.98555 4.89961 9.7999V5.5999ZM8.39961 4.8999C8.21396 4.8999 8.03591 4.97365 7.90463 5.10493C7.77336 5.2362 7.69961 5.41425 7.69961 5.5999V9.7999C7.69961 9.98555 7.77336 10.1636 7.90463 10.2949C8.03591 10.4262 8.21396 10.4999 8.39961 10.4999C8.58526 10.4999 8.76331 10.4262 8.89458 10.2949C9.02586 10.1636 9.09961 9.98555 9.09961 9.7999V5.5999C9.09961 5.41425 9.02586 5.2362 8.89458 5.10493C8.76331 4.97365 8.58526 4.8999 8.39961 4.8999Z" fill="#9AA4B2"/>
</svg>
